<svg width="36" height="36" viewBox="0 0 36 36" fill="none" xmlns="http://www.w3.org/2000/svg">
<path d="M17.953 9.93333C19.0392 9.93333 19.9197 9.05283 19.9197 7.96667C19.9197 6.88051 19.0392 6 17.953 6C16.8668 6 15.9863 6.88051 15.9863 7.96667C15.9863 9.05283 16.8668 9.93333 17.953 9.93333Z" fill="#3357D7"/>
<path d="M22.4561 12.4703C22.1021 12.1163 21.5908 11.9 21.0795 11.9H15.0025C12.2885 11.9 10.0858 9.69733 10.0858 6.98333V6H8.11914V6.98333C8.11914 10.4447 10.6955 13.375 14.0191 13.8667V21.7333V29.6H15.9858V21.7333H19.9191V29.6H21.8858V21.7333V14.673L27.4515 20.2387L28.8478 18.8423L22.4561 12.4703Z" fill="#3357D7"/>
</svg>
