<svg width="36" height="36" viewBox="0 0 36 36" fill="none" xmlns="http://www.w3.org/2000/svg">
<path d="M28.38 9.015C28.08 8.13 27.24 7.5 26.25 7.5H9.75C8.76 7.5 7.935 8.13 7.62 9.015L4.5 18V30C4.5 30.825 5.175 31.5 6 31.5H7.5C8.325 31.5 9 30.825 9 30V28.5H27V30C27 30.825 27.675 31.5 28.5 31.5H30C30.825 31.5 31.5 30.825 31.5 30V18L28.38 9.015ZM10.275 10.5H25.71L27.33 15.165H8.655L10.275 10.5ZM28.5 25.5H7.5V18H28.5V25.5Z" fill="#45C57B"/>
<path d="M11.25 24C12.4926 24 13.5 22.9926 13.5 21.75C13.5 20.5074 12.4926 19.5 11.25 19.5C10.0074 19.5 9 20.5074 9 21.75C9 22.9926 10.0074 24 11.25 24Z" fill="#45C57B"/>
<path d="M24.75 24C25.9926 24 27 22.9926 27 21.75C27 20.5074 25.9926 19.5 24.75 19.5C23.5074 19.5 22.5 20.5074 22.5 21.75C22.5 22.9926 23.5074 24 24.75 24Z" fill="#45C57B"/>
</svg>
