<svg width="37" height="36" viewBox="0 0 37 36" fill="none" xmlns="http://www.w3.org/2000/svg">
<path d="M8.60039 10.8C10.0916 10.8 11.3004 9.59113 11.3004 8.09996C11.3004 6.60879 10.0916 5.39996 8.60039 5.39996C7.10922 5.39996 5.90039 6.60879 5.90039 8.09996C5.90039 9.59113 7.10922 10.8 8.60039 10.8Z" fill="#FFC036"/>
<path d="M30.722 3.59999L18.428 13.572L15.386 11.196L20.318 8.35199L13.766 1.79999L12.506 3.07799L17.384 7.95599L8.15001 13.284L6.45801 19.404L9.73401 25.2L11.3 24.318L8.40201 19.17L9.28401 15.966L15.8 19.8L16.7 32.4H18.5L19.4 18L32 4.87799L30.722 3.59999Z" fill="#FFC036"/>
</svg>
