<svg width="36" height="36" viewBox="0 0 36 36" fill="none" xmlns="http://www.w3.org/2000/svg">
<path d="M18.0004 5.40002C11.0344 5.40002 5.40039 11.034 5.40039 18C5.40039 24.966 11.0344 30.6 18.0004 30.6C24.9664 30.6 30.6004 24.966 30.6004 18C30.6004 11.034 24.9664 5.40002 18.0004 5.40002ZM18.9004 7.27202C23.6884 7.66802 27.6124 11.178 28.5664 15.786L18.9004 10.206V7.27202ZM12.6004 8.65802C13.9504 7.88402 15.4804 7.39802 17.1004 7.25402V17.478L12.6004 20.07V8.65802ZM8.24439 22.59C7.57839 21.204 7.20039 19.638 7.20039 18C7.20039 14.814 8.60439 11.97 10.8004 9.99002V21.114L8.24439 22.59ZM9.14439 24.156L18.0004 19.044L22.5004 21.636L12.6364 27.342C11.2504 26.532 10.0444 25.47 9.14439 24.156ZM18.0004 28.8C16.8304 28.8 15.6964 28.602 14.6344 28.26L24.3004 22.68L26.8564 24.156C24.9124 26.964 21.6724 28.8 18.0004 28.8ZM18.9004 17.478V12.276L28.8004 18C28.8004 19.638 28.4224 21.186 27.7564 22.59L18.9004 17.478Z" fill="#3357D7"/>
</svg>
