<svg width="36" height="36" viewBox="0 0 36 36" fill="none" xmlns="http://www.w3.org/2000/svg">
<path d="M29.6996 10.8001H21.5996V6.3001C21.5996 4.8061 20.3936 3.6001 18.8996 3.6001H17.0996C15.6056 3.6001 14.3996 4.8061 14.3996 6.3001V10.8001H6.29961C4.80561 10.8001 3.59961 12.0061 3.59961 13.5001V29.7001C3.59961 31.1941 4.80561 32.4001 6.29961 32.4001H29.6996C31.1936 32.4001 32.3996 31.1941 32.3996 29.7001V13.5001C32.3996 12.0061 31.1936 10.8001 29.6996 10.8001ZM17.0996 6.3001H18.8996V13.5001H17.0996V6.3001ZM29.6996 29.7001H6.29961V13.5001H14.3996C14.3996 14.9941 15.6056 16.2001 17.0996 16.2001H18.8996C20.3936 16.2001 21.5996 14.9941 21.5996 13.5001H29.6996V29.7001Z" fill="#45C57B"/>
<path d="M26.9996 18H21.5996V20.7H26.9996V18Z" fill="#45C57B"/>
<path d="M26.9996 22.5H21.5996V25.2H26.9996V22.5Z" fill="#45C57B"/>
<path d="M13.5 22.5C14.7426 22.5 15.75 21.4926 15.75 20.25C15.75 19.0074 14.7426 18 13.5 18C12.2574 18 11.25 19.0074 11.25 20.25C11.25 21.4926 12.2574 22.5 13.5 22.5Z" fill="#45C57B"/>
<path d="M16.632 24.0479C15.66 23.6339 14.616 23.3999 13.5 23.3999C12.384 23.3999 11.34 23.6339 10.368 24.0479C9.54 24.4079 9 25.2179 9 26.1359V26.9999H18V26.1359C18 25.2179 17.46 24.4079 16.632 24.0479Z" fill="#45C57B"/>
</svg>
