<svg width="37" height="36" viewBox="0 0 37 36" fill="none" xmlns="http://www.w3.org/2000/svg">
<path d="M11.3 27.0002C10.31 27.0002 9.5 27.8102 9.5 28.8002H27.5C27.5 27.8102 26.69 27.0002 25.7 27.0002H18.5V23.4002H23.9C24.89 23.4002 25.7 22.5902 25.7 21.6002H15.746C13.298 21.5642 11.3 19.5662 11.3 17.1002C11.3 15.4262 12.218 13.9862 13.568 13.2122C14.054 13.9322 14.864 14.4002 15.8 14.4002C16.232 14.4002 16.646 14.2922 17.006 14.1122L18.068 17.0282L19.76 16.4162L20.336 18.0002L22.028 17.3882L21.452 15.8042L23.144 15.1922L19.832 6.08424L18.14 6.67824L17.546 5.09424L15.854 5.70624L16.43 7.29024L14.756 7.90224L15.188 9.07224C14.09 9.34224 13.262 10.2602 13.136 11.4122C10.994 12.4202 9.5 14.5802 9.5 17.1002C9.5 20.2682 11.858 22.8602 14.9 23.3102V27.0002H11.3ZM18.752 8.37024L20.84 14.0942L19.148 14.7062L17.06 8.98224L18.752 8.37024ZM15.8 10.8002C16.304 10.8002 16.7 11.1962 16.7 11.7002C16.7 12.2042 16.304 12.6002 15.8 12.6002C15.296 12.6002 14.9 12.2042 14.9 11.7002C14.9 11.1962 15.296 10.8002 15.8 10.8002Z" fill="#45C57B"/>
</svg>
