<svg width="36" height="36" viewBox="0 0 36 36" fill="none" xmlns="http://www.w3.org/2000/svg">
<path d="M8.10039 10.8C9.59156 10.8 10.8004 9.59113 10.8004 8.09996C10.8004 6.60879 9.59156 5.39996 8.10039 5.39996C6.60922 5.39996 5.40039 6.60879 5.40039 8.09996C5.40039 9.59113 6.60922 10.8 8.10039 10.8Z" fill="#FFC036"/>
<path d="M30.222 3.59999L17.928 13.572L14.886 11.196L19.818 8.35199L13.266 1.79999L12.006 3.07799L16.884 7.95599L7.65001 13.284L5.95801 19.404L9.23401 25.2L10.8 24.318L7.90201 19.17L8.78401 15.966L15.3 19.8L16.2 32.4H18L18.9 18L31.5 4.87799L30.222 3.59999Z" fill="#FFC036"/>
</svg>
