<svg width="37" height="36" viewBox="0 0 37 36" fill="none" xmlns="http://www.w3.org/2000/svg">
<path d="M18.5004 6.29999L3.65039 17.64L5.28839 19.782L7.70039 17.946V30.6H29.3004V17.946L31.7124 19.782L33.3504 17.64L18.5004 6.29999ZM26.6004 27.9H10.4004V15.876L18.5004 9.70199L26.6004 15.894V27.9ZM14.4504 21.15C14.4504 21.888 13.8384 22.5 13.1004 22.5C12.3624 22.5 11.7504 21.888 11.7504 21.15C11.7504 20.412 12.3624 19.8 13.1004 19.8C13.8384 19.8 14.4504 20.412 14.4504 21.15ZM19.8504 21.15C19.8504 21.888 19.2384 22.5 18.5004 22.5C17.7624 22.5 17.1504 21.888 17.1504 21.15C17.1504 20.412 17.7624 19.8 18.5004 19.8C19.2384 19.8 19.8504 20.412 19.8504 21.15ZM25.2504 21.15C25.2504 21.888 24.6384 22.5 23.9004 22.5C23.1624 22.5 22.5504 21.888 22.5504 21.15C22.5504 20.412 23.1624 19.8 23.9004 19.8C24.6384 19.8 25.2504 20.412 25.2504 21.15Z" fill="#45D0FC"/>
</svg>
