<svg width="36" height="36" viewBox="0 0 36 36" fill="none" xmlns="http://www.w3.org/2000/svg">
<path d="M12.6005 7.20001V8.51401C11.3765 7.93801 10.0805 7.61401 8.76653 7.61401C6.46253 7.61401 4.15853 8.49601 2.39453 10.242L6.21053 14.058H8.74853L8.56853 16.434C9.68453 17.55 11.1245 18.09 12.5825 18.09H12.6005V21.6H9.00053V26.1C9.00053 27.594 10.2065 28.8 11.7005 28.8H25.2005C27.1805 28.8 28.8005 27.18 28.8005 25.2V7.20001H12.6005ZM12.5825 16.29C11.8085 16.29 11.0705 16.074 10.4405 15.642L10.7105 12.276H6.96653L5.11253 10.422C6.21053 9.77401 7.47053 9.43201 8.76653 9.43201C10.6925 9.43201 12.4925 10.188 13.8605 11.538L16.3985 14.076L15.3185 15.156C14.5805 15.876 13.6085 16.29 12.5825 16.29ZM27.0005 25.2C27.0005 26.19 26.1905 27 25.2005 27C24.2105 27 23.4005 26.19 23.4005 25.2V21.6H14.4005V17.766C15.1925 17.496 15.9485 17.064 16.5965 16.434L17.6765 15.354L22.1225 19.8H23.4005V18.522L15.1205 10.26C14.9045 10.026 14.6525 9.86401 14.4005 9.66601V9.00001H27.0005V25.2Z" fill="#3357D7"/>
</svg>
