<svg width="37" height="36" viewBox="0 0 37 36" fill="none" xmlns="http://www.w3.org/2000/svg">
<path d="M16.7 12.6H14V18H16.7V12.6Z" fill="#45D0FC"/>
<path d="M23.0008 12.6H20.3008V18H23.0008V12.6Z" fill="#45D0FC"/>
<path d="M32.0008 12.6V16.2H29.3008V3.59998H26.6008V7.19998H23.0008V3.59998H20.3008V7.19998H16.7008V3.59998H14.0008V7.19998H10.4008V3.59998H7.70078V16.2H5.00078V12.6H2.30078V30.6H14.9008V27C14.9008 25.02 16.5208 23.4 18.5008 23.4C20.4808 23.4 22.1008 25.02 22.1008 27V30.6H34.7008V12.6H32.0008ZM32.0008 27.9H24.8008V27C24.8008 23.526 21.9748 20.7 18.5008 20.7C15.0268 20.7 12.2008 23.526 12.2008 27V27.9H5.00078V18.9H10.4008V9.89998H26.6008V18.9H32.0008V27.9Z" fill="#45D0FC"/>
</svg>
