<svg width="36" height="36" viewBox="0 0 36 36" fill="none" xmlns="http://www.w3.org/2000/svg">
<path d="M28.5 13.5L30.375 9.375L34.5 7.5L30.375 5.625L28.5 1.5L26.625 5.625L22.5 7.5L26.625 9.375L28.5 13.5Z" fill="#45C57B"/>
<path d="M28.5 22.5L26.625 26.625L22.5 28.5L26.625 30.375L28.5 34.5L30.375 30.375L34.5 28.5L30.375 26.625L28.5 22.5Z" fill="#45C57B"/>
<path d="M17.25 14.25L13.5 6L9.75 14.25L1.5 18L9.75 21.75L13.5 30L17.25 21.75L25.5 18L17.25 14.25ZM14.985 19.485L13.5 22.755L12.015 19.485L8.745 18L12.015 16.515L13.5 13.245L14.985 16.515L18.255 18L14.985 19.485Z" fill="#45C57B"/>
</svg>
