<svg width="36" height="36" viewBox="0 0 36 36" fill="none" xmlns="http://www.w3.org/2000/svg">
<path d="M14.25 27H12V13.5H14.25V27ZM19.125 27H16.875V13.5H19.125V27ZM24 27H21.75V13.5H24V27ZM25.5 9H22.5V4.5C22.5 3.675 21.825 3 21 3H15C14.175 3 13.5 3.675 13.5 4.5V9H10.5C8.85 9 7.5 10.35 7.5 12V28.5C7.5 30.15 8.85 31.5 10.5 31.5C10.5 32.325 11.175 33 12 33C12.825 33 13.5 32.325 13.5 31.5H22.5C22.5 32.325 23.175 33 24 33C24.825 33 25.5 32.325 25.5 31.5C27.15 31.5 28.5 30.15 28.5 28.5V12C28.5 10.35 27.15 9 25.5 9ZM15.75 5.25H20.25V9H15.75V5.25ZM25.5 28.5H10.5V12H25.5V28.5Z" fill="#45C57B"/>
</svg>
