<svg width="37" height="36" viewBox="0 0 37 36" fill="none" xmlns="http://www.w3.org/2000/svg">
<path d="M18.5 18C20.975 18 23 15.975 23 13.5C23 11.025 20.975 9 18.5 9C16.025 9 14 11.025 14 13.5C14 15.975 16.025 18 18.5 18ZM18.5 12C19.325 12 20 12.675 20 13.5C20 14.325 19.325 15 18.5 15C17.675 15 17 14.325 17 13.5C17 12.675 17.675 12 18.5 12ZM27.5 24.87C27.5 21.12 21.545 19.5 18.5 19.5C15.455 19.5 9.5 21.12 9.5 24.87V27H27.5V24.87ZM13.22 24C14.33 23.235 16.565 22.5 18.5 22.5C20.435 22.5 22.67 23.235 23.78 24H13.22ZM29 4.5H8C6.335 4.5 5 5.85 5 7.5V28.5C5 30.15 6.335 31.5 8 31.5H29C30.65 31.5 32 30.15 32 28.5V7.5C32 5.85 30.65 4.5 29 4.5ZM29 28.5H8V7.5H29V28.5Z" fill="#FFC036"/>
</svg>
