<svg width="37" height="36" viewBox="0 0 37 36" fill="none" xmlns="http://www.w3.org/2000/svg">
<path d="M20 24.1799H19.955C25.19 23.5799 29.255 19.1399 29.255 13.7549C29.255 7.94988 24.56 3.25488 18.755 3.25488C12.95 3.25488 8.255 7.94988 8.255 13.7549C8.255 18.9599 12.035 23.2649 17 24.0899V29.9999H8V32.9999H29V29.9999H20V24.1799ZM11.255 13.7549C11.255 9.61488 14.615 6.25488 18.755 6.25488C22.895 6.25488 26.255 9.61488 26.255 13.7549C26.255 17.8949 22.895 21.2549 18.755 21.2549C14.615 21.2549 11.255 17.8949 11.255 13.7549Z" fill="#45D0FC"/>
</svg>
