<svg width="37" height="36" viewBox="0 0 37 36" fill="none" xmlns="http://www.w3.org/2000/svg">
<path d="M11.0176 28.984L11.2871 31.4773L13.1066 29.7477L17.4193 17.8877C16.6781 17.7754 15.9593 17.5283 15.3079 17.1689L11.0176 28.984Z" fill="#45D0FC"/>
<path d="M21.6866 17.1689C21.0352 17.5283 20.3164 17.7754 19.5527 17.8877L23.8655 29.7477L25.7074 31.4773L25.9994 28.984L21.6866 17.1689Z" fill="#45D0FC"/>
<path d="M22.9907 11.2614C22.9907 9.17238 21.5532 7.42033 19.6214 6.92616V4.52271H17.3752V6.92616C15.4434 7.42033 14.0059 9.17238 14.0059 11.2614C14.0059 13.7322 16.0275 15.7538 18.4983 15.7538C20.9691 15.7538 22.9907 13.7322 22.9907 11.2614ZM18.4983 13.5076C17.2629 13.5076 16.2521 12.4968 16.2521 11.2614C16.2521 10.0259 17.2629 9.01514 18.4983 9.01514C19.7337 9.01514 20.7445 10.0259 20.7445 11.2614C20.7445 12.4968 19.7337 13.5076 18.4983 13.5076Z" fill="#45D0FC"/>
</svg>
