<svg width="36" height="36" viewBox="0 0 36 36" fill="none" xmlns="http://www.w3.org/2000/svg">
<path d="M19.5 3V15H31.5C31.5 8.37 26.13 3 19.5 3ZM22.5 12V6.51C25.05 7.41 27.075 9.435 27.99 12H22.5ZM9.66 16.5L8.235 13.5H3V16.5H6.33C6.33 16.5 9.165 22.605 9.51 23.13C7.86 24.015 6.75 25.755 6.75 27.75C6.75 30.645 9.105 33 12 33C14.64 33 16.83 31.05 17.19 28.5H20.31C20.67 31.05 22.86 33 25.5 33C28.395 33 30.75 30.645 30.75 27.75C30.75 26.19 30.06 24.795 28.98 23.835C30.555 21.81 31.5 19.26 31.5 16.5H9.66ZM12 30C10.755 30 9.75 28.995 9.75 27.75C9.75 26.505 10.755 25.5 12 25.5C13.245 25.5 14.25 26.505 14.25 27.75C14.25 28.995 13.245 30 12 30ZM25.5 30C24.255 30 23.25 28.995 23.25 27.75C23.25 26.505 24.255 25.5 25.5 25.5C26.745 25.5 27.75 26.505 27.75 27.75C27.75 28.995 26.745 30 25.5 30ZM26.61 21.99L26.175 22.545C25.965 22.515 25.725 22.5 25.5 22.5C23.415 22.5 21.6 23.73 20.76 25.5H16.74C15.99 23.94 14.49 22.8 12.72 22.545L12.06 21.54C11.91 21.285 11.55 20.505 11.055 19.5H27.99C27.675 20.385 27.21 21.225 26.61 21.99Z" fill="#45C57B"/>
</svg>
