<svg width="37" height="36" viewBox="0 0 37 36" fill="none" xmlns="http://www.w3.org/2000/svg">
<path d="M22.9994 11.25C23.745 11.25 24.3494 10.6456 24.3494 9.89999C24.3494 9.1544 23.745 8.54999 22.9994 8.54999C22.2538 8.54999 21.6494 9.1544 21.6494 9.89999C21.6494 10.6456 22.2538 11.25 22.9994 11.25Z" fill="#FFC036"/>
<path d="M16.7002 3.59998V10.8H19.4002V6.29998H32.0002V14.4C32.0002 17.874 29.1742 20.7 25.7002 20.7C24.3682 20.7 23.1262 20.268 22.1002 19.548V22.626C23.1982 23.112 24.4222 23.382 25.7002 23.382C30.6682 23.382 34.7002 19.35 34.7002 14.382V3.59998H16.7002Z" fill="#FFC036"/>
<path d="M28.3998 11.25C29.1454 11.25 29.7498 10.6456 29.7498 9.89999C29.7498 9.1544 29.1454 8.54999 28.3998 8.54999C27.6542 8.54999 27.0498 9.1544 27.0498 9.89999C27.0498 10.6456 27.6542 11.25 28.3998 11.25Z" fill="#FFC036"/>
<path d="M2.2998 23.4C2.2998 24.642 2.5518 25.83 3.0018 26.91C3.9198 29.07 5.6298 30.78 7.7898 31.698C8.8698 32.148 10.0578 32.4 11.2998 32.4C12.5418 32.4 13.7298 32.148 14.8098 31.698C16.9698 30.78 18.6798 29.07 19.5978 26.91C20.0478 25.83 20.2998 24.642 20.2998 23.4V12.6H2.2998V23.4ZM4.9998 15.3H17.5998V23.4C17.5998 26.874 14.7738 29.7 11.2998 29.7C7.8258 29.7 4.9998 26.874 4.9998 23.4V15.3Z" fill="#FFC036"/>
<path d="M8.6 20.25C9.34558 20.25 9.95 19.6456 9.95 18.9C9.95 18.1544 9.34558 17.55 8.6 17.55C7.85442 17.55 7.25 18.1544 7.25 18.9C7.25 19.6456 7.85442 20.25 8.6 20.25Z" fill="#FFC036"/>
<path d="M13.9994 20.25C14.745 20.25 15.3494 19.6456 15.3494 18.9C15.3494 18.1544 14.745 17.55 13.9994 17.55C13.2538 17.55 12.6494 18.1544 12.6494 18.9C12.6494 19.6456 13.2538 20.25 13.9994 20.25Z" fill="#FFC036"/>
<path d="M11.3002 26.118C13.2982 26.118 14.9002 24.912 14.9002 23.4H7.7002C7.7002 24.894 9.3022 26.118 11.3002 26.118Z" fill="#FFC036"/>
<path d="M25.6996 14.4C23.7016 14.4 22.0996 15.606 22.0996 17.118H29.2996C29.2996 15.606 27.6976 14.4 25.6996 14.4Z" fill="#FFC036"/>
</svg>
