<svg width="220" height="44" viewBox="0 0 220 44" fill="none" xmlns="http://www.w3.org/2000/svg">
<path d="M0.446188 39.4831C0.199722 39.4831 0 39.2755 0 39.0198V20.1922C0 19.3159 0.123233 18.4134 1.00923 17.7601C1.64665 17.2924 2.34567 17.1963 3.1998 17.1963H10.9486C12.9862 17.1963 14.4926 17.7535 15.5528 18.9007C17.0869 20.5549 17.2653 23.1925 17.2653 25.0346C17.2653 28.1441 16.8277 30.373 15.9629 31.6645C14.6137 33.6508 12.4146 33.9196 10.4429 33.9196H5.87481C5.7112 33.9196 5.57735 34.0594 5.57735 34.2299V39.0198C5.57735 39.2755 5.37763 39.4831 5.13116 39.4831H0.446188ZM6.60146 21.2236C6.38261 21.2236 6.02566 21.4006 5.88543 21.5448C5.70695 21.7306 5.57735 22.0693 5.57735 22.3512V29.582C5.57735 29.7524 5.7112 29.8923 5.87481 29.8923H8.5838C10.205 29.8923 10.9167 28.839 11.1462 28.3867C11.5265 27.6306 11.5584 26.6429 11.5584 25.5263C11.5584 24.5757 11.535 23.6601 11.2546 22.8975C10.8445 21.8223 9.96274 21.2258 8.77078 21.2258H6.60146V21.2236Z" fill="#E20E17"/>
<path d="M25.4689 33.92C22.7195 33.92 20.9773 33.8173 19.8002 31.8113C19.1182 30.64 18.9928 28.8525 18.9928 25.7539L18.9907 24.9301C18.9779 22.1658 18.9694 19.9806 20.2613 18.6083C21.7826 17 25.1884 17 27.9251 17C31.28 17 33.4047 17.0743 34.637 18.1079C36.1477 19.3709 36.3219 21.8992 36.3219 23.6911C36.3219 24.799 36.2518 25.9374 35.4253 26.6236C34.9685 27.0148 34.5159 27.0453 33.9741 27.0453H24.8697C24.7146 27.0453 24.5829 27.1721 24.5723 27.3316C24.5404 27.8058 24.6297 28.481 24.9016 28.929C25.4859 29.8905 26.6481 29.8905 27.498 29.8905L35.2765 29.8927C35.3955 29.8927 35.5103 29.9429 35.591 30.0281C35.676 30.1155 35.7227 30.2335 35.7227 30.3559V33.4567C35.7227 33.7124 35.523 33.92 35.2765 33.92H25.4689ZM27.6744 20.7651C26.4824 20.7651 25.777 20.87 25.386 21.1016C24.4554 21.6326 24.5362 22.7755 24.5744 23.324C24.585 23.4835 24.7168 23.6102 24.8719 23.6102H29.44C30.6511 23.6102 30.7445 22.6728 30.7445 22.3843C30.7445 21.9407 30.5661 21.1606 29.372 20.9049C28.7983 20.7913 27.9314 20.7651 27.6744 20.7651Z" fill="#E20E17"/>
<path d="M62.1855 33.9198C61.1295 33.9198 59.9312 33.9198 59.1982 33.273C58.8986 33.0195 58.3887 32.388 58.3887 31.055V20.3891C58.3887 19.3489 58.7477 18.3853 59.3235 17.8761C60.0374 17.2796 61.1954 17.1965 62.3449 17.1965L70.6928 17.1943C72.1886 17.1943 73.729 17.2774 74.6682 18.2804C75.2631 18.9206 75.5924 20.0176 75.5924 21.3702C75.5924 22.2902 75.5265 23.3325 74.7425 24.0886C74.2517 24.5716 73.3806 24.9256 72.5286 24.9889C72.3735 24.9999 72.2524 25.1353 72.2524 25.297V25.3604C72.2524 25.5221 72.3735 25.6576 72.5265 25.6707C73.3933 25.7406 74.3197 26.1274 74.8339 26.6322C75.5839 27.3839 75.6859 28.4459 75.6859 29.3855C75.6859 29.993 75.6859 31.8417 74.6129 32.8906C73.6419 33.8455 72.3416 33.9198 70.61 33.9198H62.1855ZM68.1453 27.0474H64.2656C64.102 27.0474 63.9681 27.1872 63.9681 27.3577V28.5355C63.9681 28.6928 63.9681 29.1736 64.2295 29.4904C64.5312 29.8925 65.0305 29.8925 65.243 29.8925H68.1729C68.2473 29.8925 68.3195 29.8969 68.3875 29.8991C68.515 29.9056 68.5936 29.91 68.6722 29.91C68.9761 29.91 69.3097 29.8597 69.6963 29.4839C70.0767 29.1277 70.1064 28.8414 70.1064 28.5049C70.1064 28.1575 70.1064 27.727 69.6369 27.373C69.2502 27.0845 68.8465 27.0474 68.5023 27.0474H68.1453ZM65.5256 20.9638C65.3258 20.9638 64.8584 20.9638 64.4929 21.2566C64.1572 21.5057 63.9681 21.9209 63.9681 22.3842V23.3675C63.9681 23.538 64.102 23.6756 64.2656 23.6756H68.0136C69.1418 23.6756 69.4711 23.4484 69.5965 23.361C70.0745 23.0135 70.0745 22.4148 70.0745 22.1875C70.0745 21.7701 69.9216 21.4686 69.5944 21.2435C69.1694 20.9616 68.6106 20.9616 68.2006 20.9616H65.5256V20.9638Z" fill="white"/>
<path d="M81.5479 34.1166C79.3148 34.1166 78.3184 33.2032 78.3184 31.1535V17.6599C78.3184 17.4043 78.5181 17.1967 78.7645 17.1967H83.4219C83.543 17.1967 83.6599 17.2469 83.7427 17.3387C83.8256 17.4283 83.8723 17.5507 83.8681 17.6774L83.5791 25.8763C83.5813 26.2172 83.662 26.4597 83.8214 26.5799C83.9467 26.6739 84.0997 26.6848 84.1613 26.6848C84.4949 26.6848 84.7201 26.4116 84.9028 26.156L84.9538 26.0882L91.0071 18.1909C91.5808 17.4502 92.0461 17 93.6757 17C96.969 17 96.969 19.3775 96.969 20.1598V33.4567C96.969 33.7124 96.7693 33.92 96.5229 33.92H91.8655C91.7444 33.92 91.6296 33.8675 91.5447 33.7779C91.4618 33.6862 91.4151 33.566 91.4214 33.4392L91.7083 25.2426C91.7083 25.0022 91.6679 24.6635 91.4852 24.5061C91.3811 24.4166 91.2493 24.3991 91.1601 24.3991C90.8902 24.3991 90.7139 24.5957 90.4951 24.8733C90.4419 24.9388 90.4058 24.9847 90.3676 25.0284L84.4396 32.729C83.4602 33.9855 82.8079 34.1166 81.5479 34.1166Z" fill="white"/>
<path d="M99.9013 33.9198C99.6548 33.9198 99.4551 33.7122 99.4551 33.4566V30.3558C99.4551 30.1001 99.6548 29.8925 99.9013 29.8925H107.945C110.006 29.8925 110.006 28.8851 110.006 28.5027C110.006 28.1443 110.006 27.0496 107.882 27.0496H100.373C100.126 27.0496 99.9268 26.842 99.9268 26.5863V24.1389C99.9268 23.8832 100.126 23.6756 100.373 23.6756H107.914C109.943 23.6756 109.943 22.6901 109.943 22.3186C109.943 21.3681 109.343 20.9616 107.943 20.9616H100.216C99.9693 20.9616 99.7695 20.754 99.7695 20.4984V17.6598C99.7695 17.4041 99.9693 17.1965 100.216 17.1965L110.733 17.1943C112.072 17.1943 113.459 17.2708 114.426 18.1646C115.123 18.8179 115.458 19.8231 115.458 21.2391C115.458 22.4279 115.189 23.35 114.651 23.9794C114.109 24.5803 113.404 24.8928 112.603 24.8928C112.603 24.8928 112.443 24.8884 112.441 24.8884C112.337 24.8884 112.267 24.9168 112.21 24.9714C112.15 25.0283 112.118 25.1113 112.118 25.1943V25.3254C112.118 25.4107 112.152 25.4915 112.21 25.5505C112.265 25.6052 112.337 25.6357 112.416 25.6357C112.49 25.6336 112.564 25.6292 112.603 25.6292C113.417 25.6292 114.105 25.9482 114.653 26.5798C115.271 27.2965 115.584 28.2842 115.584 29.5145C115.584 31.5882 114.802 32.5956 114.334 33.0108C113.359 33.8521 112.101 33.9176 110.559 33.9176H99.9013V33.9198Z" fill="white"/>
<path d="M120.986 34.1166C118.753 34.1166 117.754 33.2032 117.754 31.1535V17.6599C117.754 17.4043 117.954 17.1967 118.2 17.1967H122.86C122.981 17.1967 123.098 17.2469 123.18 17.3387C123.265 17.4283 123.31 17.5507 123.306 17.6774L123.019 25.8763C123.021 26.2172 123.1 26.4597 123.259 26.5799C123.384 26.6739 123.539 26.6848 123.599 26.6848C123.935 26.6848 124.16 26.4116 124.343 26.156L130.447 18.1931C131.018 17.4502 131.484 17 133.111 17C136.405 17 136.405 19.3775 136.405 20.1598V33.4567C136.405 33.7124 136.205 33.92 135.958 33.92H131.301C131.18 33.92 131.065 33.8675 130.98 33.7779C130.895 33.6862 130.851 33.566 130.855 33.4392L131.142 25.2404C131.142 25 131.101 24.6613 130.919 24.504C130.814 24.4144 130.683 24.3969 130.594 24.3969C130.324 24.3969 130.147 24.5936 129.926 24.8711L129.803 25.024L123.871 32.7269C122.898 33.9855 122.243 34.1166 120.986 34.1166Z" fill="white"/>
<path d="M144.63 33.9196C144.383 33.9196 144.181 33.712 144.181 33.4563V21.4683C144.181 21.2979 144.047 21.158 143.884 21.158H138.391C138.145 21.158 137.945 20.9505 137.945 20.6948V17.6596C137.945 17.4039 138.145 17.1963 138.391 17.1963H155.551C155.797 17.1963 155.997 17.4039 155.997 17.6596V20.6948C155.997 20.9505 155.797 21.158 155.551 21.158H150.058C149.893 21.158 149.761 21.2979 149.761 21.4683V33.4563C149.761 33.712 149.561 33.9196 149.315 33.9196H144.63Z" fill="white"/>
<path d="M50.3936 33.784C50.2533 33.784 50.1195 33.7141 50.0366 33.5939L45.4451 27.0646C45.1604 26.6494 44.693 25.9632 44.693 25.347C44.693 24.7985 45.0691 24.1189 45.6364 23.2711L49.4523 17.559C49.5331 17.4366 49.6691 17.3623 49.8135 17.3623H54.6366C54.8045 17.3623 54.9574 17.4606 55.0318 17.618C55.1062 17.7753 55.0871 17.961 54.9829 18.0987L51.0289 23.3607C50.4339 24.1583 50.0664 24.7636 50.0664 25.3142C50.0664 25.9348 50.5147 26.5379 50.8419 26.975L55.6395 33.0367C55.7478 33.1722 55.7691 33.3601 55.6968 33.5196C55.6246 33.6792 55.4695 33.7797 55.2995 33.7797H50.3936V33.784ZM38.9457 33.784C38.7013 33.784 38.5059 33.5786 38.5059 33.3273V17.8234C38.5059 17.5721 38.7035 17.3689 38.9457 17.3689H43.5627C43.8049 17.3689 44.0025 17.5721 44.0025 17.8234V33.3295C44.0025 33.5808 43.8049 33.7862 43.5627 33.7862H38.9457V33.784Z" fill="#E20E17"/>
<path d="M165.155 15V5.04688H168.409C169.489 5.04688 170.3 5.27018 170.843 5.7168C171.39 6.16341 171.663 6.82422 171.663 7.69922C171.663 8.16406 171.531 8.5765 171.267 8.93652C171.002 9.29199 170.642 9.56771 170.187 9.76367C170.724 9.91406 171.148 10.2012 171.458 10.625C171.772 11.0443 171.93 11.5456 171.93 12.1289C171.93 13.0221 171.64 13.724 171.062 14.2344C170.483 14.7448 169.665 15 168.607 15H165.155ZM166.468 10.3447V13.9268H168.635C169.245 13.9268 169.726 13.7695 170.077 13.4551C170.433 13.1361 170.61 12.6986 170.61 12.1426C170.61 10.944 169.959 10.3447 168.655 10.3447H166.468ZM166.468 9.29199H168.45C169.024 9.29199 169.482 9.14844 169.824 8.86133C170.171 8.57422 170.344 8.18457 170.344 7.69238C170.344 7.14551 170.184 6.74902 169.865 6.50293C169.546 6.25228 169.061 6.12695 168.409 6.12695H166.468V9.29199ZM175.252 9.10742H177.727C178.766 9.12109 179.577 9.3877 180.16 9.90723C180.743 10.4268 181.035 11.1331 181.035 12.0264C181.035 12.9242 180.741 13.6396 180.153 14.1729C179.565 14.7061 178.763 14.9818 177.747 15H173.939V5.04688H175.252V9.10742ZM175.252 10.1875V13.9268H177.651C178.303 13.9268 178.809 13.7536 179.169 13.4072C179.534 13.0609 179.716 12.596 179.716 12.0127C179.716 11.4521 179.54 11.0101 179.189 10.6865C178.843 10.363 178.349 10.1966 177.706 10.1875H175.252ZM183.551 15H182.238V5.04688H183.551V15ZM192.062 6.12695H187.263V9.10742H189.737C190.776 9.12109 191.588 9.3877 192.171 9.90723C192.754 10.4268 193.046 11.1331 193.046 12.0264C193.046 12.9242 192.752 13.6396 192.164 14.1729C191.576 14.7061 190.774 14.9818 189.758 15H185.943V5.04688H192.062V6.12695ZM187.263 10.1875V13.9268H189.662C190.314 13.9268 190.82 13.7536 191.18 13.4072C191.544 13.0609 191.727 12.596 191.727 12.0127C191.727 11.4521 191.551 11.0101 191.2 10.6865C190.854 10.363 190.359 10.1966 189.717 10.1875H187.263ZM202.479 10.3447C202.479 11.32 202.315 12.1722 201.987 12.9014C201.659 13.626 201.194 14.1797 200.593 14.5625C199.991 14.9453 199.289 15.1367 198.487 15.1367C197.703 15.1367 197.008 14.9453 196.402 14.5625C195.796 14.1751 195.325 13.626 194.987 12.915C194.655 12.1995 194.484 11.3724 194.475 10.4336V9.71582C194.475 8.75879 194.641 7.91341 194.974 7.17969C195.306 6.44596 195.776 5.88542 196.382 5.49805C196.993 5.10612 197.69 4.91016 198.474 4.91016C199.271 4.91016 199.973 5.10384 200.579 5.49121C201.19 5.87402 201.659 6.43229 201.987 7.16602C202.315 7.89518 202.479 8.74512 202.479 9.71582V10.3447ZM201.174 9.70215C201.174 8.52181 200.937 7.61719 200.463 6.98828C199.989 6.35482 199.326 6.03809 198.474 6.03809C197.644 6.03809 196.99 6.35482 196.512 6.98828C196.038 7.61719 195.794 8.49219 195.78 9.61328V10.3447C195.78 11.4886 196.02 12.3887 196.498 13.0449C196.981 13.6966 197.644 14.0225 198.487 14.0225C199.335 14.0225 199.991 13.7148 200.456 13.0996C200.921 12.4798 201.16 11.5934 201.174 10.4404V9.70215ZM205.761 11.1035V15H204.448V5.04688H208.119C209.208 5.04688 210.061 5.32487 210.676 5.88086C211.296 6.43685 211.605 7.17285 211.605 8.08887C211.605 9.05501 211.302 9.80013 210.696 10.3242C210.095 10.8438 209.231 11.1035 208.105 11.1035H205.761ZM205.761 10.0303H208.119C208.821 10.0303 209.359 9.86621 209.732 9.53809C210.106 9.2054 210.293 8.72689 210.293 8.10254C210.293 7.51009 210.106 7.03613 209.732 6.68066C209.359 6.3252 208.846 6.14062 208.194 6.12695H205.761V10.0303ZM219.453 6.12695H214.654V15H213.335V5.04688H219.453V6.12695Z" fill="white"/>
</svg>
