<svg width="220" height="40" viewBox="0 0 220 40" fill="none" xmlns="http://www.w3.org/2000/svg">
<path d="M0.446188 35.4836C0.199722 35.4836 0 35.276 0 35.0203V16.1927C0 15.3164 0.123233 14.4139 1.00923 13.7606C1.64665 13.2929 2.34567 13.1968 3.1998 13.1968H10.9486C12.9862 13.1968 14.4926 13.754 15.5528 14.9012C17.0869 16.5554 17.2653 19.193 17.2653 21.0351C17.2653 24.1446 16.8277 26.3735 15.9629 27.665C14.6137 29.6513 12.4146 29.9201 10.4429 29.9201H5.87481C5.7112 29.9201 5.57735 30.0599 5.57735 30.2304V35.0203C5.57735 35.276 5.37763 35.4836 5.13116 35.4836H0.446188ZM6.60146 17.2241C6.38261 17.2241 6.02566 17.4011 5.88543 17.5453C5.70695 17.7311 5.57735 18.0698 5.57735 18.3517V25.5825C5.57735 25.7529 5.7112 25.8928 5.87481 25.8928H8.5838C10.205 25.8928 10.9167 24.8395 11.1462 24.3872C11.5265 23.6311 11.5584 22.6434 11.5584 21.5267C11.5584 20.5762 11.535 19.6606 11.2546 18.898C10.8445 17.8228 9.96274 17.2263 8.77078 17.2263H6.60146V17.2241Z" fill="#E20E17"/>
<path d="M25.4689 29.92C22.7195 29.92 20.9773 29.8173 19.8002 27.8113C19.1182 26.64 18.9928 24.8525 18.9928 21.7539L18.9907 20.9301C18.9779 18.1658 18.9694 15.9806 20.2613 14.6083C21.7826 13 25.1884 13 27.9251 13C31.28 13 33.4047 13.0743 34.637 14.1079C36.1477 15.3709 36.3219 17.8992 36.3219 19.6911C36.3219 20.799 36.2518 21.9374 35.4253 22.6236C34.9685 23.0148 34.5159 23.0453 33.9741 23.0453H24.8697C24.7146 23.0453 24.5829 23.1721 24.5723 23.3316C24.5404 23.8058 24.6297 24.481 24.9016 24.929C25.4859 25.8905 26.6481 25.8905 27.498 25.8905L35.2765 25.8927C35.3955 25.8927 35.5103 25.9429 35.591 26.0281C35.676 26.1155 35.7227 26.2335 35.7227 26.3559V29.4567C35.7227 29.7124 35.523 29.92 35.2765 29.92H25.4689ZM27.6744 16.7651C26.4824 16.7651 25.777 16.87 25.386 17.1016C24.4554 17.6326 24.5362 18.7755 24.5744 19.324C24.585 19.4835 24.7168 19.6102 24.8719 19.6102H29.44C30.6511 19.6102 30.7445 18.6728 30.7445 18.3843C30.7445 17.9407 30.5661 17.1606 29.372 16.9049C28.7983 16.7913 27.9314 16.7651 27.6744 16.7651Z" fill="#E20E17"/>
<path d="M62.1855 29.9198C61.1295 29.9198 59.9312 29.9198 59.1982 29.273C58.8986 29.0195 58.3887 28.388 58.3887 27.055V16.3891C58.3887 15.3489 58.7477 14.3853 59.3235 13.8761C60.0374 13.2796 61.1954 13.1965 62.3449 13.1965L70.6928 13.1943C72.1886 13.1943 73.729 13.2774 74.6682 14.2804C75.2631 14.9206 75.5924 16.0176 75.5924 17.3702C75.5924 18.2902 75.5265 19.3325 74.7425 20.0886C74.2517 20.5716 73.3806 20.9256 72.5286 20.9889C72.3735 20.9999 72.2524 21.1353 72.2524 21.297V21.3604C72.2524 21.5221 72.3735 21.6576 72.5265 21.6707C73.3933 21.7406 74.3197 22.1274 74.8339 22.6322C75.5839 23.3839 75.6859 24.4459 75.6859 25.3855C75.6859 25.993 75.6859 27.8417 74.6129 28.8906C73.6419 29.8455 72.3416 29.9198 70.61 29.9198H62.1855ZM68.1453 23.0474H64.2656C64.102 23.0474 63.9681 23.1872 63.9681 23.3577V24.5355C63.9681 24.6928 63.9681 25.1736 64.2295 25.4904C64.5312 25.8925 65.0305 25.8925 65.243 25.8925H68.1729C68.2473 25.8925 68.3195 25.8969 68.3875 25.8991C68.515 25.9056 68.5936 25.91 68.6722 25.91C68.9761 25.91 69.3097 25.8597 69.6963 25.4839C70.0767 25.1277 70.1064 24.8414 70.1064 24.5049C70.1064 24.1575 70.1064 23.727 69.6369 23.373C69.2502 23.0845 68.8465 23.0474 68.5023 23.0474H68.1453ZM65.5256 16.9638C65.3258 16.9638 64.8584 16.9638 64.4929 17.2566C64.1572 17.5057 63.9681 17.9209 63.9681 18.3842V19.3675C63.9681 19.538 64.102 19.6756 64.2656 19.6756H68.0136C69.1418 19.6756 69.4711 19.4484 69.5965 19.361C70.0745 19.0135 70.0745 18.4148 70.0745 18.1875C70.0745 17.7701 69.9216 17.4686 69.5944 17.2435C69.1694 16.9616 68.6106 16.9616 68.2006 16.9616H65.5256V16.9638Z" fill="#313243"/>
<path d="M81.5479 30.1166C79.3148 30.1166 78.3184 29.2032 78.3184 27.1535V13.6599C78.3184 13.4043 78.5181 13.1967 78.7645 13.1967H83.4219C83.543 13.1967 83.6599 13.2469 83.7427 13.3387C83.8256 13.4283 83.8723 13.5507 83.8681 13.6774L83.5791 21.8763C83.5813 22.2172 83.662 22.4597 83.8214 22.5799C83.9467 22.6739 84.0997 22.6848 84.1613 22.6848C84.4949 22.6848 84.7201 22.4116 84.9028 22.156L84.9538 22.0882L91.0071 14.1909C91.5808 13.4502 92.0461 13 93.6757 13C96.969 13 96.969 15.3775 96.969 16.1598V29.4567C96.969 29.7124 96.7693 29.92 96.5229 29.92H91.8655C91.7444 29.92 91.6296 29.8675 91.5447 29.7779C91.4618 29.6862 91.4151 29.566 91.4214 29.4392L91.7083 21.2426C91.7083 21.0022 91.6679 20.6635 91.4852 20.5061C91.3811 20.4166 91.2493 20.3991 91.1601 20.3991C90.8902 20.3991 90.7139 20.5957 90.4951 20.8733C90.4419 20.9388 90.4058 20.9847 90.3676 21.0284L84.4396 28.729C83.4602 29.9855 82.8079 30.1166 81.5479 30.1166Z" fill="#313243"/>
<path d="M99.9013 29.9198C99.6548 29.9198 99.4551 29.7122 99.4551 29.4566V26.3558C99.4551 26.1001 99.6548 25.8925 99.9013 25.8925H107.945C110.006 25.8925 110.006 24.8851 110.006 24.5027C110.006 24.1443 110.006 23.0496 107.882 23.0496H100.373C100.126 23.0496 99.9268 22.842 99.9268 22.5863V20.1389C99.9268 19.8832 100.126 19.6756 100.373 19.6756H107.914C109.943 19.6756 109.943 18.6901 109.943 18.3186C109.943 17.3681 109.343 16.9616 107.943 16.9616H100.216C99.9693 16.9616 99.7695 16.754 99.7695 16.4984V13.6598C99.7695 13.4041 99.9693 13.1965 100.216 13.1965L110.733 13.1943C112.072 13.1943 113.459 13.2708 114.426 14.1646C115.123 14.8179 115.458 15.8231 115.458 17.2391C115.458 18.4279 115.189 19.35 114.651 19.9794C114.109 20.5803 113.404 20.8928 112.603 20.8928C112.603 20.8928 112.443 20.8884 112.441 20.8884C112.337 20.8884 112.267 20.9168 112.21 20.9714C112.15 21.0283 112.118 21.1113 112.118 21.1943V21.3254C112.118 21.4107 112.152 21.4915 112.21 21.5505C112.265 21.6052 112.337 21.6357 112.416 21.6357C112.49 21.6336 112.564 21.6292 112.603 21.6292C113.417 21.6292 114.105 21.9482 114.653 22.5798C115.271 23.2965 115.584 24.2842 115.584 25.5145C115.584 27.5882 114.802 28.5956 114.334 29.0108C113.359 29.8521 112.101 29.9176 110.559 29.9176H99.9013V29.9198Z" fill="#313243"/>
<path d="M120.986 30.1166C118.753 30.1166 117.754 29.2032 117.754 27.1535V13.6599C117.754 13.4043 117.954 13.1967 118.2 13.1967H122.86C122.981 13.1967 123.098 13.2469 123.18 13.3387C123.265 13.4283 123.31 13.5507 123.306 13.6774L123.019 21.8763C123.021 22.2172 123.1 22.4597 123.259 22.5799C123.384 22.6739 123.539 22.6848 123.599 22.6848C123.935 22.6848 124.16 22.4116 124.343 22.156L130.447 14.1931C131.018 13.4502 131.484 13 133.111 13C136.405 13 136.405 15.3775 136.405 16.1598V29.4567C136.405 29.7124 136.205 29.92 135.958 29.92H131.301C131.18 29.92 131.065 29.8675 130.98 29.7779C130.895 29.6862 130.851 29.566 130.855 29.4392L131.142 21.2404C131.142 21 131.101 20.6613 130.919 20.504C130.814 20.4144 130.683 20.3969 130.594 20.3969C130.324 20.3969 130.147 20.5936 129.926 20.8711L129.803 21.024L123.871 28.7269C122.898 29.9855 122.243 30.1166 120.986 30.1166Z" fill="#313243"/>
<path d="M144.63 29.9201C144.383 29.9201 144.181 29.7125 144.181 29.4568V17.4688C144.181 17.2984 144.047 17.1585 143.884 17.1585H138.391C138.145 17.1585 137.945 16.9509 137.945 16.6953V13.66C137.945 13.4044 138.145 13.1968 138.391 13.1968H155.551C155.797 13.1968 155.997 13.4044 155.997 13.66V16.6953C155.997 16.9509 155.797 17.1585 155.551 17.1585H150.058C149.893 17.1585 149.761 17.2984 149.761 17.4688V29.4568C149.761 29.7125 149.561 29.9201 149.315 29.9201H144.63Z" fill="#313243"/>
<path d="M50.3936 29.7845C50.2533 29.7845 50.1195 29.7146 50.0366 29.5944L45.4451 23.0651C45.1604 22.6499 44.693 21.9637 44.693 21.3475C44.693 20.799 45.0691 20.1194 45.6364 19.2716L49.4523 13.5595C49.5331 13.4371 49.6691 13.3628 49.8135 13.3628H54.6366C54.8045 13.3628 54.9574 13.4611 55.0318 13.6185C55.1062 13.7758 55.0871 13.9615 54.9829 14.0992L51.0289 19.3612C50.4339 20.1588 50.0664 20.764 50.0664 21.3147C50.0664 21.9353 50.5147 22.5384 50.8419 22.9755L55.6395 29.0372C55.7478 29.1727 55.7691 29.3606 55.6968 29.5201C55.6246 29.6796 55.4695 29.7802 55.2995 29.7802H50.3936V29.7845ZM38.9457 29.7845C38.7013 29.7845 38.5059 29.5791 38.5059 29.3278V13.8239C38.5059 13.5726 38.7035 13.3693 38.9457 13.3693H43.5627C43.8049 13.3693 44.0025 13.5726 44.0025 13.8239V29.33C44.0025 29.5813 43.8049 29.7867 43.5627 29.7867H38.9457V29.7845Z" fill="#E20E17"/>
<path d="M168.704 6.34473H166.182L166.168 5.28516H168.458C168.836 5.28516 169.167 5.22135 169.449 5.09375C169.732 4.96615 169.951 4.78385 170.105 4.54688C170.265 4.30534 170.345 4.01823 170.345 3.68555C170.345 3.32096 170.274 3.02474 170.133 2.79688C169.996 2.56445 169.784 2.39583 169.497 2.29102C169.215 2.18164 168.854 2.12695 168.417 2.12695H166.476V11H165.156V1.04688H168.417C168.927 1.04688 169.383 1.09928 169.784 1.2041C170.185 1.30436 170.525 1.46387 170.803 1.68262C171.085 1.89681 171.299 2.17025 171.445 2.50293C171.591 2.83561 171.664 3.23438 171.664 3.69922C171.664 4.10938 171.559 4.48079 171.35 4.81348C171.14 5.1416 170.848 5.41048 170.475 5.62012C170.105 5.82975 169.673 5.96419 169.176 6.02344L168.704 6.34473ZM168.643 11H165.662L166.407 9.92676H168.643C169.062 9.92676 169.417 9.85384 169.709 9.70801C170.005 9.56217 170.231 9.3571 170.386 9.09277C170.541 8.82389 170.618 8.50716 170.618 8.14258C170.618 7.77344 170.552 7.45443 170.42 7.18555C170.288 6.91667 170.08 6.70931 169.798 6.56348C169.515 6.41764 169.151 6.34473 168.704 6.34473H166.824L166.838 5.28516H169.408L169.688 5.66797C170.167 5.70898 170.573 5.8457 170.905 6.07812C171.238 6.30599 171.491 6.59766 171.664 6.95312C171.842 7.30859 171.931 7.70052 171.931 8.12891C171.931 8.7487 171.794 9.27279 171.521 9.70117C171.252 10.125 170.871 10.4486 170.379 10.6719C169.887 10.8906 169.308 11 168.643 11Z" fill="#313243"/>
<path d="M174.945 5.10059H177.659C178.388 5.10059 179.004 5.22363 179.505 5.46973C180.006 5.71126 180.387 6.05078 180.646 6.48828C180.906 6.92578 181.036 7.43848 181.036 8.02637C181.036 8.46387 180.963 8.86491 180.817 9.22949C180.672 9.58952 180.455 9.90397 180.168 10.1729C179.881 10.4372 179.528 10.6423 179.108 10.7881C178.689 10.9294 178.206 11 177.659 11H173.94V1.04688H175.26V9.92676H177.659C178.147 9.92676 178.541 9.83789 178.842 9.66016C179.147 9.47786 179.37 9.24089 179.512 8.94922C179.653 8.65755 179.724 8.34538 179.724 8.0127C179.724 7.68001 179.653 7.37467 179.512 7.09668C179.37 6.81868 179.147 6.59766 178.842 6.43359C178.541 6.26497 178.147 6.18066 177.659 6.18066H174.945V5.10059ZM183.559 1.04688V11H182.239V1.04688H183.559Z" fill="#313243"/>
<path d="M192.062 1.04688V2.12695H187.264V11H185.951V1.04688H192.062ZM186.956 5.10059H189.67C190.399 5.10059 191.014 5.22363 191.516 5.46973C192.017 5.71126 192.397 6.05078 192.657 6.48828C192.917 6.92578 193.047 7.43848 193.047 8.02637C193.047 8.46387 192.974 8.86491 192.828 9.22949C192.682 9.58952 192.466 9.90397 192.179 10.1729C191.892 10.4372 191.538 10.6423 191.119 10.7881C190.7 10.9294 190.217 11 189.67 11H185.951V1.04688H187.271V9.92676H189.67C190.158 9.92676 190.552 9.83789 190.853 9.66016C191.158 9.47786 191.381 9.24089 191.522 8.94922C191.664 8.65755 191.734 8.34538 191.734 8.0127C191.734 7.68001 191.664 7.37467 191.522 7.09668C191.381 6.81868 191.158 6.59766 190.853 6.43359C190.552 6.26497 190.158 6.18066 189.67 6.18066H186.956V5.10059Z" fill="#313243"/>
<path d="M202.487 5.70898V6.33789C202.487 7.08529 202.394 7.75521 202.207 8.34766C202.02 8.9401 201.751 9.44368 201.4 9.8584C201.049 10.2731 200.628 10.5898 200.136 10.8086C199.648 11.0273 199.101 11.1367 198.495 11.1367C197.907 11.1367 197.367 11.0273 196.875 10.8086C196.387 10.5898 195.964 10.2731 195.604 9.8584C195.248 9.44368 194.972 8.9401 194.776 8.34766C194.58 7.75521 194.482 7.08529 194.482 6.33789V5.70898C194.482 4.96159 194.578 4.29395 194.77 3.70605C194.965 3.11361 195.241 2.61003 195.597 2.19531C195.952 1.77604 196.374 1.45703 196.861 1.23828C197.354 1.01953 197.894 0.910156 198.481 0.910156C199.088 0.910156 199.634 1.01953 200.122 1.23828C200.614 1.45703 201.036 1.77604 201.387 2.19531C201.742 2.61003 202.013 3.11361 202.2 3.70605C202.392 4.29395 202.487 4.96159 202.487 5.70898ZM201.182 6.33789V5.69531C201.182 5.10286 201.12 4.57878 200.997 4.12305C200.879 3.66732 200.703 3.28451 200.471 2.97461C200.238 2.66471 199.953 2.43001 199.616 2.27051C199.284 2.111 198.905 2.03125 198.481 2.03125C198.071 2.03125 197.7 2.111 197.367 2.27051C197.039 2.43001 196.757 2.66471 196.52 2.97461C196.287 3.28451 196.107 3.66732 195.979 4.12305C195.852 4.57878 195.788 5.10286 195.788 5.69531V6.33789C195.788 6.9349 195.852 7.46354 195.979 7.92383C196.107 8.37956 196.289 8.76465 196.526 9.0791C196.768 9.389 197.053 9.6237 197.381 9.7832C197.714 9.94271 198.085 10.0225 198.495 10.0225C198.924 10.0225 199.304 9.94271 199.637 9.7832C199.969 9.6237 200.25 9.389 200.478 9.0791C200.71 8.76465 200.885 8.37956 201.004 7.92383C201.122 7.46354 201.182 6.9349 201.182 6.33789Z" fill="#313243"/>
<path d="M208.134 7.09668H205.475V6.02344H208.134C208.649 6.02344 209.066 5.94141 209.385 5.77734C209.704 5.61328 209.936 5.38542 210.082 5.09375C210.232 4.80208 210.308 4.4694 210.308 4.0957C210.308 3.75391 210.232 3.43262 210.082 3.13184C209.936 2.83105 209.704 2.58952 209.385 2.40723C209.066 2.22038 208.649 2.12695 208.134 2.12695H205.782V11H204.463V1.04688H208.134C208.886 1.04688 209.521 1.17676 210.041 1.43652C210.561 1.69629 210.955 2.05632 211.224 2.5166C211.493 2.97233 211.627 3.49414 211.627 4.08203C211.627 4.72005 211.493 5.26465 211.224 5.71582C210.955 6.16699 210.561 6.51107 210.041 6.74805C209.521 6.98047 208.886 7.09668 208.134 7.09668Z" fill="#313243"/>
<path d="M219.468 1.04688V2.12695H214.669V11H213.356V1.04688H219.468Z" fill="#313243"/>
</svg>
