<svg width="36" height="36" viewBox="0 0 36 36" fill="none" xmlns="http://www.w3.org/2000/svg">
<circle cx="18" cy="18" r="18" fill="white"/>
<path d="M7.74284 11C8.51213 11 9.68437 11 10.3438 11C10.6735 11 10.9299 11.232 11.0398 11.5414C11.3695 12.547 12.1021 14.7514 12.9447 16.2597C14.0803 18.232 14.8129 18.9669 15.2892 18.8895C15.7654 18.7735 15.6189 17.4586 15.6189 16.4144C15.6189 15.3702 15.7287 13.5912 15.2525 12.779L14.5199 11.6575C14.3367 11.3867 14.5199 11.0387 14.8129 11.0387H18.9891C19.392 11.0387 19.7217 11.3867 19.7217 11.8122V17.4199C19.7217 17.4199 19.9049 18.4254 20.9306 17.3812C21.9563 16.337 23.0553 14.4033 23.9711 12.4309L24.3374 11.5028C24.4473 11.232 24.7037 11.0387 24.9968 11.0387H27.7076C28.2205 11.0387 28.5868 11.5801 28.4036 12.0829L28.1106 12.895C28.1106 12.895 27.1215 14.9834 26.0958 16.453C25.0701 17.9613 24.8503 18.3094 24.9968 18.6961C25.1433 19.0829 27.7809 21.674 28.4403 22.9116C28.6234 23.2597 28.77 23.5691 28.9165 23.8398C29.1729 24.3425 28.8066 25 28.2571 25H25.18C24.9235 25 24.6671 24.8453 24.5572 24.6133L24.2641 24.1105C24.2641 24.1105 22.3959 21.7901 21.2603 21.0553C20.088 20.3591 20.1247 21.3646 20.1247 21.3646V23.4144C20.1247 24.2652 19.4653 24.9613 18.6594 24.9613H17.9267C17.9267 24.9613 13.8971 24.9613 10.6735 19.895C8.1458 15.9503 7.30325 13.3978 7.01019 11.9282C6.93693 11.4641 7.26662 11 7.74284 11Z" fill="#313243"/>
</svg>
