<svg width="24" height="24" viewBox="0 0 24 24" fill="none" xmlns="http://www.w3.org/2000/svg">
<path d="M10.133 16.977H14.818V18.662H10.133H10.033V18.762V22.606H7.623V18.762V18.662H7.523H5.1V16.977H7.523H7.623V16.877V14.296V14.196H7.523H5.1V12.192H7.523H7.623V12.092V2.1H12.975C15.4972 2.1 17.3446 2.61073 18.5366 3.61353L18.5372 3.61402C19.7467 4.6156 20.357 6.07306 20.357 8.003C20.357 9.94967 19.7 11.4665 18.392 12.5662C17.0829 13.6474 15.1473 14.196 12.569 14.196H10.133H10.033V14.296V16.877V16.977H10.133ZM10.133 4.104H10.033V4.204V12.092V12.192H10.133H12.192C13.9599 12.192 15.3435 11.901 16.3321 11.308C17.358 10.7043 17.86 9.6204 17.86 8.09C17.86 6.75381 17.4463 5.74435 16.6038 5.08237C15.7658 4.42396 14.4724 4.104 12.743 4.104H10.133Z" fill="#FFC036" stroke="white" stroke-width="0.2"/>
</svg>
