<svg width="54" height="48" viewBox="0 0 54 48" fill="none" xmlns="http://www.w3.org/2000/svg">
<path d="M37.2356 44.8116L37.968 45.3388L38.5674 44.6642C40.9533 41.9789 43.0023 38.9729 44.7154 35.6497C46.4219 32.4295 47.7522 29.1577 48.7036 25.8346L48.7073 25.8217L48.7106 25.8088C49.5628 22.5013 50 19.5667 50 17.017C50 13.1475 49.0738 9.81828 47.1642 7.08789L47.1522 7.07079L47.1396 7.0542C45.0511 4.31873 41.9804 3 38.0994 3C35.5261 3 33.3151 3.85881 31.5335 5.58738C29.6378 7.42662 28.7143 9.82223 28.7143 12.678C28.7143 15.1743 29.5484 17.2319 31.29 18.7172C32.956 20.2276 34.9132 21 37.1211 21C37.7343 21 38.3467 20.9504 38.9578 20.8516L38.9732 20.8491L38.9886 20.8461C39.1753 20.8099 39.37 20.7625 39.5723 20.7047C39.6606 22.874 39.4091 25.0798 38.8128 27.3255C37.9895 30.164 37.0328 32.7256 35.9454 35.0137C34.7516 37.3287 33.6722 39.0644 32.7104 40.252L32.0443 41.0746L32.9033 41.6929L37.2356 44.8116ZM11.5214 44.8116L12.2537 45.3388L12.8531 44.6642C15.239 41.9789 17.288 38.973 19.0011 35.6497C20.7076 32.4296 22.0379 29.1577 22.9893 25.8346L22.993 25.8217L22.9963 25.8088C23.8486 22.5013 24.2857 19.5667 24.2857 17.0169C24.2857 13.1475 23.3595 9.81828 21.4499 7.08789L21.4379 7.07079L21.4253 7.05419C19.3369 4.31872 16.2661 3 12.3851 3C9.81186 3 7.60076 3.85881 5.81918 5.58738C3.92354 7.42662 3 9.82222 3 12.678C3 15.1743 3.83409 17.2319 5.5757 18.7172C7.24168 20.2276 9.1989 21 11.4068 21C12.02 21 12.6324 20.9504 13.2435 20.8516L13.259 20.8491L13.2743 20.8461C13.461 20.8099 13.6557 20.7625 13.858 20.7047C13.9463 22.874 13.6948 25.0798 13.0985 27.3255C12.2752 30.164 11.3185 32.7256 10.2311 35.0137C9.03737 37.3287 7.95787 39.0644 6.99616 40.252L6.33004 41.0746L7.18906 41.6929L11.5214 44.8116Z" stroke="#E20E17" stroke-width="2"/>
</svg>
