<svg width="36" height="36" viewBox="0 0 36 36" fill="none" xmlns="http://www.w3.org/2000/svg">
<circle cx="18" cy="18" r="18" fill="white"/>
<path d="M28 10.009C27.1294 10.6113 26.1656 11.0719 25.1455 11.3732C24.5979 10.7558 23.8703 10.3181 23.0609 10.1195C22.2516 9.92083 21.3995 9.9708 20.6201 10.2626C19.8406 10.5544 19.1713 11.074 18.7027 11.7511C18.2341 12.4281 17.9888 13.23 18 14.0483V14.9399C16.4024 14.9806 14.8193 14.633 13.3918 13.9283C11.9643 13.2235 10.7367 12.1834 9.81818 10.9006C9.81818 10.9006 6.18182 18.9258 14.3636 22.4925C12.4914 23.739 10.2611 24.364 8 24.2758C16.1818 28.7342 26.1818 24.2758 26.1818 14.0215C26.181 13.7731 26.1566 13.5254 26.1091 13.2814C27.0369 12.3839 27.6917 11.2508 28 10.009V10.009Z" fill="#313243"/>
</svg>
