<svg width="24" height="24" viewBox="0 0 24 24" fill="none" xmlns="http://www.w3.org/2000/svg">
<path d="M11.9996 4.19999L6.59961 8.32799V6.59999H4.79961V9.69599L2.09961 11.76L3.19161 13.188L4.79961 11.964V20.4H19.1996V11.964L20.8076 13.188L21.8996 11.76L11.9996 4.19999ZM17.3996 18.6H12.8996V15H11.0996V18.6H6.59961V10.584L11.9996 6.46799L17.3996 10.596V18.6ZM10.1996 1.79999C10.1996 2.87999 9.47961 4.49999 7.49961 4.49999C7.09161 4.51199 6.59961 4.67999 6.59961 5.39999H4.79961C4.79961 4.31999 5.51961 2.69999 7.49961 2.69999C7.90761 2.68799 8.39961 2.51999 8.39961 1.79999H10.1996Z" fill="#313243"/>
</svg>
