<svg width="24" height="24" viewBox="0 0 24 24" fill="none" xmlns="http://www.w3.org/2000/svg">
<path d="M18.6689 3.70817L19.9754 5.02249L20.3289 5.37817L20.6836 5.02355L21.5 4.20711V19C21.5 19.8239 20.8239 20.5 20 20.5H4C3.17614 20.5 2.5 19.8239 2.5 19V4.20711L3.31645 5.02355L3.67106 5.37817L4.02461 5.02249L5.33106 3.70817L6.64645 5.02355L7 5.37711L7.35355 5.02355L8.66894 3.70817L9.97539 5.02249L10.3289 5.37817L10.6836 5.02355L12 3.70711L13.3164 5.02355L13.6711 5.37817L14.0246 5.02249L15.3311 3.70817L16.6464 5.02355L17 5.37711L17.3536 5.02355L18.6689 3.70817ZM11 19.5H11.5V19V13V12.5H11H4H3.5V13V19V19.5H4H11ZM20 19.5H20.5V19V17V16.5H20H13H12.5V17V19V19.5H13H20ZM20 15.5H20.5V15V13V12.5H20H13H12.5V13V15V15.5H13H20ZM20 11.5H20.5V11V8V7.5H20H4H3.5V8V11V11.5H4H20Z" fill="white" stroke="white"/>
</svg>
