<svg width="153" height="15" viewBox="0 0 153 15" fill="none" xmlns="http://www.w3.org/2000/svg">
<path d="M0.288882 14.2988C0.129309 14.2988 0 14.1677 0 14.0063V2.11907C0 1.5658 0.0797865 0.995983 0.65342 0.583444C1.06611 0.288214 1.51869 0.227539 2.07169 0.227539H7.08861C8.40784 0.227539 9.38315 0.57934 10.0696 1.30365C11.0628 2.34807 11.1783 4.01331 11.1783 5.17637C11.1783 7.13968 10.895 8.54695 10.3351 9.36231C9.46156 10.6165 8.03776 10.7862 6.7612 10.7862H3.80361C3.69768 10.7862 3.61102 10.8744 3.61102 10.982V14.0063C3.61102 14.1677 3.48172 14.2988 3.32214 14.2988H0.288882ZM4.27408 2.77027C4.13238 2.77027 3.90128 2.88202 3.81049 2.97306C3.69494 3.09031 3.61102 3.30416 3.61102 3.48214V8.04747C3.61102 8.15512 3.69768 8.24339 3.80361 8.24339H5.55753C6.60717 8.24339 7.06796 7.57842 7.21654 7.29279C7.46277 6.81547 7.48342 6.19187 7.48342 5.48681C7.48342 4.88669 7.46827 4.30861 7.28673 3.82706C7.02121 3.14827 6.45032 2.77166 5.67859 2.77166H4.27408V2.77027Z" fill="#E20E17"/>
<path d="M16.4888 10.7863C14.7088 10.7863 13.5807 10.7215 12.8186 9.45497C12.3771 8.71544 12.2959 7.58686 12.2959 5.63049L12.2945 5.11037C12.2862 3.36506 12.2808 1.98539 13.1172 1.11895C14.1021 0.103516 16.3073 0.103516 18.0791 0.103516C20.2512 0.103516 21.6268 0.150426 22.4246 0.803014C23.4027 1.60044 23.5155 3.19674 23.5155 4.3281C23.5155 5.02759 23.4701 5.74635 22.935 6.1796C22.6393 6.42659 22.3462 6.44585 21.9955 6.44585H16.1009C16.0005 6.44585 15.9152 6.52591 15.9083 6.62661C15.8877 6.92601 15.9455 7.35231 16.1215 7.63517C16.4998 8.24223 17.2523 8.24223 17.8025 8.24223L22.8387 8.24362C22.9157 8.24362 22.9901 8.27531 23.0423 8.32911C23.0973 8.38429 23.1276 8.45879 23.1276 8.53607V10.4938C23.1276 10.6553 22.9983 10.7863 22.8387 10.7863H16.4888ZM17.9167 2.4807C17.145 2.4807 16.6883 2.54693 16.4352 2.69316C15.8326 3.02841 15.8849 3.75001 15.9097 4.09632C15.9165 4.19702 16.0019 4.27702 16.1023 4.27702H19.0599C19.844 4.27702 19.9045 3.68517 19.9045 3.50302C19.9045 3.22294 19.789 2.73041 19.0158 2.56896C18.6444 2.49724 18.0832 2.4807 17.9167 2.4807Z" fill="#E20E17"/>
<path d="M40.2629 10.7865C39.5792 10.7865 38.8034 10.7865 38.3288 10.3782C38.1348 10.2181 37.8047 9.81939 37.8047 8.97783V2.24361C37.8047 1.58692 38.0372 0.978464 38.4099 0.656969C38.8721 0.280355 39.6219 0.227888 40.3661 0.227888L45.7709 0.226562C46.7394 0.226562 47.7367 0.278967 48.3448 0.912234C48.7299 1.3165 48.9431 2.00905 48.9431 2.86311C48.9431 3.44391 48.9005 4.10206 48.3929 4.57937C48.0751 4.88433 47.5111 5.10783 46.9595 5.1478C46.8591 5.15474 46.7807 5.24029 46.7807 5.34239V5.38235C46.7807 5.48445 46.8591 5.57 46.9581 5.57827C47.5193 5.62247 48.1191 5.86662 48.452 6.18533C48.9376 6.65994 49.0037 7.33046 49.0037 7.92376C49.0037 8.30725 49.0037 9.47447 48.3089 10.1367C47.6803 10.7396 46.8384 10.7865 45.7173 10.7865H40.2629ZM44.1215 6.44748H41.6097C41.5037 6.44748 41.4171 6.53581 41.4171 6.6434V7.38703C41.4171 7.48641 41.417 7.78991 41.5863 7.98999C41.7816 8.2438 42.1049 8.2438 42.2425 8.2438H44.1394C44.1876 8.2438 44.2343 8.24658 44.2784 8.24797C44.3609 8.25207 44.4118 8.25485 44.4627 8.25485C44.6594 8.25485 44.8754 8.22309 45.1258 7.98582C45.372 7.76093 45.3912 7.58016 45.3912 7.36771C45.3912 7.14837 45.3912 6.87656 45.0873 6.65306C44.8369 6.47097 44.5755 6.44748 44.3527 6.44748H44.1215ZM42.4254 2.60646C42.2961 2.60646 41.9935 2.60646 41.7569 2.79133C41.5395 2.9486 41.4171 3.21075 41.4171 3.50326V4.12409C41.4171 4.23174 41.5037 4.31862 41.6097 4.31862H44.0363C44.7667 4.31862 44.9799 4.17517 45.0611 4.11999C45.3707 3.90058 45.3707 3.52258 45.3707 3.37907C45.3707 3.1156 45.2716 2.92518 45.0598 2.78306C44.7846 2.60507 44.4228 2.60507 44.1573 2.60507H42.4254V2.60646Z" fill="#313243"/>
<path d="M52.798 10.9105C51.3522 10.9105 50.707 10.3338 50.707 9.03965V0.520158C50.707 0.35878 50.8363 0.227707 50.9959 0.227707H54.0113C54.0897 0.227707 54.1654 0.259402 54.219 0.317362C54.2726 0.373933 54.3029 0.451212 54.3002 0.531207L54.113 5.70777C54.1145 5.92301 54.1667 6.07612 54.2699 6.15201C54.351 6.21136 54.4501 6.21824 54.49 6.21824C54.706 6.21824 54.8518 6.04575 54.9701 5.88437L55.0031 5.84156L58.9223 0.855418C59.2937 0.38776 59.595 0.103516 60.65 0.103516C62.7823 0.103516 62.7823 1.6046 62.7823 2.09853V10.4938C62.7823 10.6553 62.653 10.7863 62.4934 10.7863H59.478C59.3996 10.7863 59.3254 10.7532 59.2703 10.6966C59.2166 10.6387 59.1864 10.5628 59.1905 10.4828L59.3762 5.30767C59.3762 5.15589 59.3501 4.94204 59.2318 4.84266C59.1644 4.78616 59.0791 4.77511 59.0213 4.77511C58.8466 4.77511 58.7324 4.89924 58.5908 5.0745C58.5563 5.11586 58.5329 5.14484 58.5082 5.17243L54.6702 10.0344C54.0361 10.8277 53.6137 10.9105 52.798 10.9105Z" fill="#313243"/>
<path d="M64.6795 10.7865C64.5199 10.7865 64.3906 10.6555 64.3906 10.4941V8.53631C64.3906 8.37487 64.5199 8.2438 64.6795 8.2438H69.8879C71.2223 8.2438 71.2223 7.60782 71.2223 7.36632C71.2223 7.1401 71.2223 6.44887 69.8464 6.44887H64.9848C64.8255 6.44887 64.696 6.3178 64.696 6.15635V4.61113C64.696 4.44969 64.8255 4.31862 64.9848 4.31862H69.8672C71.1808 4.31862 71.1808 3.6964 71.1808 3.46184C71.1808 2.86172 70.793 2.60507 69.8859 2.60507H64.8831C64.7235 2.60507 64.5942 2.474 64.5942 2.31262V0.520403C64.5942 0.358961 64.7235 0.227888 64.8831 0.227888L71.6923 0.226562C72.5592 0.226562 73.4572 0.274799 74.0833 0.83912C74.5346 1.25166 74.7521 1.88625 74.7521 2.78034C74.7521 3.53085 74.5773 4.11311 74.229 4.51043C73.8781 4.88982 73.4216 5.08712 72.903 5.08712C72.903 5.08712 72.8001 5.08435 72.7981 5.08435C72.7308 5.08435 72.6855 5.10228 72.6486 5.13681C72.6097 5.17268 72.5897 5.22508 72.5897 5.27755V5.36032C72.5897 5.41411 72.611 5.46513 72.6486 5.50238C72.6842 5.53691 72.7308 5.55623 72.782 5.55623C72.8299 5.55485 72.8784 5.55207 72.903 5.55207C73.4301 5.55207 73.8755 5.75354 74.2303 6.15225C74.6311 6.60476 74.8331 7.22836 74.8331 8.00514C74.8331 9.31442 74.3268 9.95046 74.0244 10.2126C73.3925 10.7438 72.578 10.7852 71.5797 10.7852H64.6795V10.7865Z" fill="#313243"/>
<path d="M78.3328 10.9105C76.887 10.9105 76.2402 10.3338 76.2402 9.03965V0.520158C76.2402 0.35878 76.3697 0.227707 76.5296 0.227707H79.5461C79.6244 0.227707 79.7002 0.259402 79.7539 0.317362C79.8089 0.373933 79.8374 0.451212 79.8348 0.531207L79.649 5.70777C79.6503 5.92301 79.7015 6.07612 79.8044 6.15201C79.886 6.21136 79.9863 6.21824 80.0245 6.21824C80.2421 6.21824 80.3878 6.04575 80.5062 5.88437L84.4582 0.856807C84.8286 0.38776 85.1297 0.103516 86.1837 0.103516C88.3157 0.103516 88.3157 1.6046 88.3157 2.09853V10.4938C88.3157 10.6553 88.1862 10.7863 88.027 10.7863H85.0112C84.9328 10.7863 84.859 10.7532 84.804 10.6966C84.7489 10.6387 84.7198 10.5628 84.7224 10.4828L84.9082 5.30628C84.9082 5.1545 84.8823 4.94065 84.7638 4.84134C84.6965 4.78477 84.611 4.77372 84.5534 4.77372C84.3786 4.77372 84.2647 4.89791 84.1216 5.07312L84.0419 5.16965L80.2007 10.0331C79.5707 10.8277 79.1473 10.9105 78.3328 10.9105Z" fill="#313243"/>
<path d="M93.6407 10.7862C93.4807 10.7862 93.35 10.6551 93.35 10.4937V2.92476C93.35 2.81718 93.2638 2.72885 93.1577 2.72885H89.6019C89.442 2.72885 89.3125 2.59778 89.3125 2.4364V0.519991C89.3125 0.358549 89.442 0.227539 89.6019 0.227539H100.711C100.871 0.227539 101 0.358549 101 0.519991V2.4364C101 2.59778 100.871 2.72885 100.711 2.72885H97.155C97.0482 2.72885 96.9627 2.81718 96.9627 2.92476V10.4937C96.9627 10.6551 96.8332 10.7862 96.6739 10.7862H93.6407Z" fill="#313243"/>
<path d="M32.6263 10.7008C32.5355 10.7008 32.4488 10.6566 32.3952 10.5808L29.4225 6.45829C29.2382 6.19614 28.9356 5.76296 28.9356 5.37384C28.9356 5.0276 29.179 4.59852 29.5463 4.06318L32.0169 0.45671C32.0692 0.37943 32.1572 0.33252 32.2508 0.33252H35.3735C35.4821 0.33252 35.5812 0.394646 35.6294 0.493961C35.6775 0.593276 35.6651 0.710585 35.5977 0.797462L33.0376 4.11975C32.6525 4.62333 32.4145 5.0055 32.4145 5.3532C32.4145 5.74503 32.7047 6.12581 32.9166 6.40172L36.0227 10.2289C36.0929 10.3145 36.1066 10.4331 36.0599 10.5339C36.0132 10.6346 35.9127 10.698 35.8027 10.698H32.6263V10.7008ZM25.2144 10.7008C25.0563 10.7008 24.9297 10.5711 24.9297 10.4125V0.623645C24.9297 0.464981 25.0576 0.336686 25.2144 0.336686H28.2037C28.3605 0.336686 28.4884 0.464981 28.4884 0.623645V10.4138C28.4884 10.5725 28.3605 10.7022 28.2037 10.7022H25.2144V10.7008Z" fill="#E20E17"/>
<path d="M106.133 10.408V2.11377H108.913C109.836 2.11377 110.529 2.29985 110.993 2.67204C111.461 3.04421 111.694 3.59489 111.694 4.32405C111.694 4.71142 111.581 5.05512 111.356 5.35514C111.129 5.65136 110.822 5.88113 110.433 6.04443C110.892 6.16975 111.254 6.40901 111.519 6.7622C111.787 7.11159 111.922 7.52934 111.922 8.01546C111.922 8.75982 111.675 9.34467 111.181 9.77004C110.686 10.1954 109.987 10.408 109.083 10.408H106.133ZM107.255 6.52864V9.51367H109.107C109.628 9.51367 110.039 9.38264 110.339 9.1206C110.643 8.85476 110.794 8.49018 110.794 8.02685C110.794 7.02804 110.238 6.52864 109.124 6.52864H107.255ZM107.255 5.65136H108.949C109.439 5.65136 109.83 5.53174 110.123 5.29248C110.419 5.05322 110.567 4.72851 110.567 4.31835C110.567 3.86263 110.43 3.53222 110.158 3.32714C109.885 3.11827 109.471 3.01383 108.913 3.01383H107.255V5.65136Z" fill="#313243"/>
<path d="M114.761 5.49755H116.876C117.764 5.50894 118.457 5.73112 118.955 6.16406C119.453 6.597 119.703 7.18565 119.703 7.93001C119.703 8.67816 119.451 9.27441 118.949 9.71879C118.446 10.1631 117.761 10.3929 116.893 10.408H113.639V2.11377H114.761V5.49755ZM114.761 6.39762V9.51367H116.811C117.368 9.51367 117.8 9.36935 118.108 9.08073C118.42 8.79209 118.575 8.40473 118.575 7.91862C118.575 7.45149 118.425 7.08311 118.125 6.81347C117.829 6.54384 117.407 6.40521 116.858 6.39762H114.761ZM121.853 10.408H120.731V2.11377H121.853V10.408Z" fill="#313243"/>
<path d="M129.127 3.01383H125.026V5.49755H127.141C128.028 5.50894 128.722 5.73112 129.221 6.16406C129.719 6.597 129.968 7.18565 129.968 7.93001C129.968 8.67816 129.717 9.27441 129.215 9.71879C128.712 10.1631 128.027 10.3929 127.159 10.408H123.898V2.11377H129.127V3.01383ZM125.026 6.39762V9.51367H127.076C127.634 9.51367 128.066 9.36935 128.374 9.08073C128.685 8.79209 128.841 8.40473 128.841 7.91862C128.841 7.45149 128.691 7.08311 128.391 6.81347C128.095 6.54384 127.672 6.40521 127.123 6.39762H125.026Z" fill="#313243"/>
<path d="M138.027 6.52881C138.027 7.34153 137.887 8.0517 137.607 8.65934C137.327 9.26319 136.929 9.72462 136.416 10.0436C135.901 10.3626 135.301 10.5221 134.616 10.5221C133.946 10.5221 133.352 10.3626 132.834 10.0436C132.316 9.72079 131.914 9.26319 131.625 8.67074C131.341 8.07449 131.195 7.3852 131.188 6.60286V6.00472C131.188 5.2072 131.329 4.50271 131.614 3.89128C131.898 3.27984 132.299 2.81272 132.817 2.48991C133.339 2.1633 133.935 2 134.605 2C135.286 2 135.886 2.1614 136.404 2.48421C136.926 2.80322 137.327 3.26844 137.607 3.87989C137.887 4.48752 138.027 5.1958 138.027 6.00472V6.52881ZM136.912 5.99333C136.912 5.00971 136.71 4.25586 136.305 3.73177C135.899 3.20389 135.333 2.93994 134.605 2.93994C133.896 2.93994 133.337 3.20389 132.928 3.73177C132.523 4.25586 132.315 4.98503 132.303 5.91927V6.52881C132.303 7.48205 132.508 8.23209 132.916 8.77897C133.329 9.32204 133.896 9.59362 134.616 9.59362C135.341 9.59362 135.901 9.33724 136.299 8.82454C136.696 8.30805 136.9 7.56939 136.912 6.60856V5.99333Z" fill="#313243"/>
<path d="M140.833 7.16097V10.408H139.711V2.11377H142.848C143.779 2.11377 144.508 2.34543 145.033 2.80875C145.563 3.27208 145.827 3.88541 145.827 4.64876C145.827 5.45388 145.568 6.07481 145.05 6.51155C144.537 6.94449 143.798 7.16097 142.836 7.16097H140.833ZM140.833 6.26659H142.848C143.448 6.26659 143.908 6.12988 144.226 5.85644C144.546 5.5792 144.706 5.18044 144.706 4.66015C144.706 4.16644 144.546 3.77148 144.226 3.47525C143.908 3.17904 143.469 3.02522 142.912 3.01383H140.833V6.26659Z" fill="#313243"/>
<path d="M152.533 3.01383H148.432V10.408H147.305V2.11377H152.533V3.01383Z" fill="#313243"/>
</svg>
