<svg width="24" height="24" viewBox="0 0 24 24" fill="none" xmlns="http://www.w3.org/2000/svg">
<path d="M19.8004 7.1999H14.4004V4.1999C14.4004 3.2039 13.5964 2.3999 12.6004 2.3999H11.4004C10.4044 2.3999 9.60039 3.2039 9.60039 4.1999V7.1999H4.20039C3.20439 7.1999 2.40039 8.0039 2.40039 8.9999V19.7999C2.40039 20.7959 3.20439 21.5999 4.20039 21.5999H19.8004C20.7964 21.5999 21.6004 20.7959 21.6004 19.7999V8.9999C21.6004 8.0039 20.7964 7.1999 19.8004 7.1999ZM11.4004 4.1999H12.6004V8.9999H11.4004V4.1999ZM19.8004 19.7999H4.20039V8.9999H9.60039C9.60039 9.9959 10.4044 10.7999 11.4004 10.7999H12.6004C13.5964 10.7999 14.4004 9.9959 14.4004 8.9999H19.8004V19.7999Z" fill="#313243"/>
<path d="M18.0004 12H14.4004V13.8H18.0004V12Z" fill="#313243"/>
<path d="M18.0004 15H14.4004V16.8H18.0004V15Z" fill="#313243"/>
<path d="M9 15C9.82843 15 10.5 14.3284 10.5 13.5C10.5 12.6716 9.82843 12 9 12C8.17157 12 7.5 12.6716 7.5 13.5C7.5 14.3284 8.17157 15 9 15Z" fill="#313243"/>
<path d="M11.088 16.0321C10.44 15.7561 9.744 15.6001 9 15.6001C8.256 15.6001 7.56 15.7561 6.912 16.0321C6.36 16.2721 6 16.8121 6 17.4241V18.0001H12V17.4241C12 16.8121 11.64 16.2721 11.088 16.0321Z" fill="#313243"/>
</svg>
