<svg width="36" height="36" viewBox="0 0 36 36" fill="none" xmlns="http://www.w3.org/2000/svg">
<path d="M17.999 10.695L19.454 14.13L20.159 15.795L21.959 15.945L25.664 16.26L22.844 18.705L21.479 19.89L21.884 21.66L22.724 25.275L19.544 23.355L17.999 22.395L16.454 23.325L13.274 25.245L14.114 21.63L14.519 19.86L13.154 18.675L10.334 16.23L14.039 15.915L15.839 15.765L16.544 14.1L17.999 10.695ZM17.999 3L13.784 12.945L2.99902 13.86L11.189 20.955L8.72902 31.5L17.999 25.905L27.269 31.5L24.809 20.955L32.999 13.86L22.214 12.945L17.999 3Z" fill="#757A82"/>
</svg>
